<?xml version="1.0" encoding="utf-8" ?>
<svg xmlns="http://www.w3.org/2000/svg" xmlns:xlink="http://www.w3.org/1999/xlink" width="1292" height="549">
	<path fill="#353A3E" transform="scale(1.83784 1.83612)" d="M186.154 122.087C185.437 126.86 185.659 131.845 185.647 136.667L185.649 158.577L185.643 231.796C185.638 242.118 186.541 253.472 184.781 263.66C183.669 270.103 181.304 275.965 177.23 281.116C170.207 289.996 160.472 295.097 149.288 296.401C142.149 297.234 134.786 296.91 127.604 296.906L95.0644 296.908L60.4032 296.927C52.068 296.93 43.3666 297.442 35.1307 295.987C28.2155 294.765 21.923 292.029 16.4261 287.635Q15.6723 287.035 14.9491 286.399Q14.226 285.763 13.5354 285.092Q12.8448 284.42 12.1883 283.715Q11.5319 283.011 10.9114 282.274Q10.2908 281.537 9.70757 280.771Q9.12436 280.004 8.57996 279.21Q8.03556 278.415 7.53131 277.594Q7.02707 276.774 6.56422 275.929Q6.10137 275.084 5.68106 274.218Q5.26076 273.351 4.88403 272.465Q4.50731 271.578 4.17509 270.674Q3.84288 269.77 3.556 268.85Q3.26912 267.931 3.02828 266.998Q2.78744 266.066 2.59324 265.122Q2.39903 264.179 2.25195 263.227Q2.10486 262.275 2.00525 261.317C0.898782 251.105 1.59484 240.241 1.59483 229.961L1.60521 171.994L1.60248 120.162C1.59562 109.862 0.832909 98.9139 2.34457 88.7236Q2.52932 87.4463 2.80034 86.1844Q3.07135 84.9225 3.42738 83.682Q3.78341 82.4415 4.22281 81.2279Q4.66221 80.0144 5.18296 78.8335Q5.7037 77.6526 6.30339 76.5097Q6.90308 75.3669 7.57895 74.2674Q8.25481 73.1679 9.00374 72.1168Q9.75267 71.0657 10.5712 70.0679Q11.1987 69.3025 11.8629 68.5686Q12.5271 67.8348 13.2264 67.1343Q13.9258 66.4339 14.6585 65.7685Q15.3912 65.1031 16.1556 64.4743Q16.92 63.8455 17.7143 63.2549Q18.5085 62.6643 19.3307 62.1132Q20.1529 61.5622 21.001 61.052Q21.8492 60.5418 22.7213 60.0737Q23.5934 59.6057 24.4873 59.1808Q25.3813 58.756 26.2949 58.3754Q27.2086 57.9947 28.1397 57.6593Q29.0709 57.3238 30.0174 57.0343Q30.9639 56.7448 31.9234 56.502Q32.8829 56.2591 33.8531 56.0635Q34.8233 55.8678 35.802 55.7199Q36.7806 55.572 37.7653 55.4721C42.5659 54.9621 47.5345 55.1827 52.3578 55.1879L74.5041 55.2212C79.1824 55.2286 83.9699 55.447 88.6239 54.9451C86.8614 59.3548 85.1863 64.5644 84.5244 69.2632L42.6436 69.2294C34.9759 69.4638 28.264 71.8017 22.9047 77.5044Q22.2399 78.2206 21.6302 78.9843Q21.0205 79.748 20.4693 80.555Q19.9181 81.3619 19.4284 82.2076Q18.9387 83.0533 18.5133 83.9331Q18.0879 84.8129 17.729 85.7218Q17.3702 86.6308 17.08 87.564Q16.7898 88.4971 16.5697 89.4493Q16.3497 90.4014 16.2011 91.3673C15.227 97.9931 15.8101 105.32 15.8112 112.033L15.8208 150.813L15.8234 221.329C15.8195 233.007 15.3991 244.826 15.8213 256.489Q15.8642 257.581 15.9386 258.672C16.6591 264.851 19.0694 270.594 23.5522 274.999C27.2176 278.601 32.1426 281.081 37.1847 282.024C41.9943 282.925 47.2501 282.613 52.1347 282.613L72.3932 282.602L142.095 282.587C150.737 282.511 157.902 280.881 164.124 274.497Q164.796 273.815 165.413 273.084Q166.03 272.352 166.588 271.574Q167.146 270.797 167.642 269.979Q168.138 269.16 168.569 268.306Q169.001 267.451 169.364 266.566Q169.728 265.68 170.021 264.769Q170.315 263.858 170.537 262.927Q170.759 261.996 170.908 261.051C171.772 255.872 171.39 250.291 171.379 245.048L171.349 220.858L171.307 134.643C177.087 131.607 181.866 126.93 186.154 122.087Z"/>
	<path fill="#010202" transform="scale(1.83784 1.83612)" d="M186.154 122.087C185.437 126.86 185.659 131.845 185.647 136.667L185.649 158.577L185.643 231.796C185.638 242.118 186.541 253.472 184.781 263.66C183.669 270.103 181.304 275.965 177.23 281.116C170.207 289.996 160.472 295.097 149.288 296.401C142.149 297.234 134.786 296.91 127.604 296.906L95.0644 296.908L60.4032 296.927C52.068 296.93 43.3666 297.442 35.1307 295.987C28.2155 294.765 21.923 292.029 16.4261 287.635Q15.6723 287.035 14.9491 286.399Q14.226 285.763 13.5354 285.092Q12.8448 284.42 12.1883 283.715Q11.5319 283.011 10.9114 282.274Q10.2908 281.537 9.70757 280.771Q9.12436 280.004 8.57996 279.21Q8.03556 278.415 7.53131 277.594Q7.02707 276.774 6.56422 275.929Q6.10137 275.084 5.68106 274.218Q5.26076 273.351 4.88403 272.465Q4.50731 271.578 4.17509 270.674Q3.84288 269.77 3.556 268.85Q3.26912 267.931 3.02828 266.998Q2.78744 266.066 2.59324 265.122Q2.39903 264.179 2.25195 263.227Q2.10486 262.275 2.00525 261.317C0.898782 251.105 1.59484 240.241 1.59483 229.961L1.60521 171.994L1.60248 120.162C1.59562 109.862 0.832909 98.9139 2.34457 88.7236Q2.52932 87.4463 2.80034 86.1844Q3.07135 84.9225 3.42738 83.682Q3.78341 82.4415 4.22281 81.2279Q4.66221 80.0144 5.18296 78.8335Q5.7037 77.6526 6.30339 76.5097Q6.90308 75.3669 7.57895 74.2674Q8.25481 73.1679 9.00374 72.1168Q9.75267 71.0657 10.5712 70.0679Q11.1987 69.3025 11.8629 68.5686Q12.5271 67.8348 13.2264 67.1343Q13.9258 66.4339 14.6585 65.7685Q15.3912 65.1031 16.1556 64.4743Q16.92 63.8455 17.7143 63.2549Q18.5085 62.6643 19.3307 62.1132Q20.1529 61.5622 21.001 61.052Q21.8492 60.5418 22.7213 60.0737Q23.5934 59.6057 24.4873 59.1808Q25.3813 58.756 26.2949 58.3754Q27.2086 57.9947 28.1397 57.6593Q29.0709 57.3238 30.0174 57.0343Q30.9639 56.7448 31.9234 56.502Q32.8829 56.2591 33.8531 56.0635Q34.8233 55.8678 35.802 55.7199Q36.7806 55.572 37.7653 55.4721C42.5659 54.9621 47.5345 55.1827 52.3578 55.1879L74.5041 55.2212C79.1824 55.2286 83.9699 55.447 88.6239 54.9451C86.8614 59.3548 85.1863 64.5644 84.5244 69.2632L42.6436 69.2294C44.7307 68.1717 76.192 69.4442 83.053 68.3614Q84.7384 62.5872 86.1794 56.7472C75.1827 56.995 64.1441 56.6532 53.1396 56.6639C46.474 56.6705 39.5089 56.2461 32.9784 57.7257C25.76 59.3611 18.9175 62.8661 13.7888 68.247Q12.8482 69.2263 11.9803 70.2707Q11.1125 71.3151 10.3218 72.4191Q9.53118 73.523 8.82181 74.6809Q8.11245 75.8388 7.48804 77.0446Q6.86363 78.2505 6.32739 79.498Q5.79115 80.7456 5.34586 82.0284Q4.90056 83.3112 4.5485 84.6227Q4.19644 85.9342 3.93944 87.2676C2.09576 96.7482 2.3262 106.647 2.31106 116.26L2.2711 146.37Q1.91952 179.752 2.04899 213.134C2.04398 225 1.83878 236.912 2.16147 248.771C2.51621 261.809 4.72106 274.853 14.6003 284.229C20.1511 289.497 26.575 292.758 34.0265 294.44C47.3737 297.453 67.6636 296.239 81.6959 296.259Q101.386 296.382 121.075 296.094C127.103 296.056 133.146 296.231 139.171 296.059C152.305 295.685 164.865 292.689 174.136 282.806Q175.002 281.87 175.8 280.875Q176.598 279.88 177.324 278.832Q178.05 277.784 178.701 276.687Q179.352 275.591 179.924 274.451Q180.497 273.312 180.988 272.135Q181.479 270.958 181.886 269.75Q182.294 268.541 182.615 267.307Q182.937 266.073 183.171 264.82C184.446 258.252 184.319 251.116 184.357 244.442L184.328 218.135Q184.533 192.263 184.38 166.39C184.36 156.817 184.517 147.236 184.182 137.668L183.797 127.427C180.278 129.843 175.561 132.58 172.785 135.806C171.967 147.682 172.482 159.967 172.517 171.884Q172.376 200.356 172.582 228.826C172.61 238.32 173.64 255.666 171.581 264.259C170.411 269.142 167.142 273.584 163.41 276.852C160.428 279.464 156.158 282.131 152.194 282.786C146.767 283.682 140.606 283.026 135.077 283.029L96.6966 282.947L55.5956 283.021C49.796 283.041 43.66 283.612 37.9137 283.192C31.8077 282.746 25.2813 278.967 21.3159 274.357C18.5856 271.183 14.459 264.571 14.9227 260.205C14.9998 259.479 15.3978 259.115 15.9386 258.672C16.6591 264.851 19.0694 270.594 23.5522 274.999C27.2176 278.601 32.1426 281.081 37.1847 282.024C41.9943 282.925 47.2501 282.613 52.1347 282.613L72.3932 282.602L142.095 282.587C150.737 282.511 157.902 280.881 164.124 274.497Q164.796 273.815 165.413 273.084Q166.03 272.352 166.588 271.574Q167.146 270.797 167.642 269.979Q168.138 269.16 168.569 268.306Q169.001 267.451 169.364 266.566Q169.728 265.68 170.021 264.769Q170.315 263.858 170.537 262.927Q170.759 261.996 170.908 261.051C171.772 255.872 171.39 250.291 171.379 245.048L171.349 220.858L171.307 134.643C177.087 131.607 181.866 126.93 186.154 122.087Z"/>
	<path fill="#FE663E" transform="scale(1.83784 1.83612)" d="M125.947 0.617476C132.302 1.89575 138.82 6.84709 143.32 11.3397C154.217 22.2196 157.813 36.1129 155.169 51.0665C154.06 57.339 152.305 63.7206 152.327 70.1119C157.358 69.8366 161.105 68.2954 164.682 64.6949C170.938 58.396 172.067 51.6002 172.059 43.1106Q172.959 44.0085 173.791 44.9692C184.129 56.8116 190.275 71.8744 189.167 87.7462C188.284 100.378 182.116 111.016 172.709 119.238C165.705 124.919 157.006 128.474 148.209 130.312C136.412 132.777 124.208 129.416 114.269 122.892C102.964 115.472 95.1338 104.625 92.3833 91.3066C88.859 74.2407 96.1797 57.0703 107.565 44.5386C112.978 38.5809 119.158 33.3598 122.31 25.7205C123.806 22.095 124.56 17.9173 124.832 14.0176C125.111 10.0104 123.72 4.0072 125.947 0.617476Z"/>
	<path fill="#FE663E" transform="scale(1.83784 1.83612)" d="M315.248 192.8C323.39 192.751 331.52 192.789 339.662 192.652C339.69 192.714 339.716 192.777 339.746 192.838C339.876 193.111 340.01 193.378 340.096 193.669C340.958 196.558 340.433 214.524 340.437 218.435C340.459 239.456 340.809 260.568 340.366 281.58C340.352 282.225 340.343 282.641 340.021 283.223Q331.246 283.087 322.48 283.505C322.658 283.218 322.829 282.906 322.914 282.577C323.68 279.612 323.093 267.338 323.089 263.523C323.078 252.391 323.645 239.543 322.952 228.577C322.908 227.877 322.754 227.346 322.388 226.753C322.56 226.5 322.734 226.217 322.823 225.921C323.244 224.521 324.031 215.845 323.459 214.775C321.836 217.098 320.856 221.772 319.721 224.61C314.885 236.71 310.32 248.842 305.71 261.028C302.942 268.344 299.96 275.639 297.488 283.058L285.55 283.376L265.386 230.778C263.312 225.498 261.184 217.838 258.71 213.241C260.481 230.179 259.545 247.635 259.527 264.663C259.521 270.594 258.892 277.378 259.785 283.21Q251.38 283.042 242.986 283.487C243.258 275.465 243.012 267.349 243.011 259.318L243.012 213.546C243.009 209.17 242.33 195.913 243.169 192.704C251.121 193.014 259.144 192.36 267.074 192.955C270.354 199.961 272.808 207.517 275.464 214.778C280.612 228.85 285.615 243.174 291.357 257.01C293.883 251.221 315.715 194.978 315.248 192.8Z"/>
	<path fill="#010202" transform="scale(1.83784 1.83612)" d="M241.992 80.5576C254.958 80.8887 279.783 78.9282 290.811 82.8651Q291.448 83.0865 292.073 83.3393Q292.699 83.5921 293.311 83.8756Q293.923 84.1591 294.52 84.4726Q295.117 84.7861 295.698 85.1288Q296.279 85.4715 296.842 85.8427Q297.405 86.2138 297.95 86.6124Q298.494 87.011 299.017 87.4361Q299.541 87.8612 300.043 88.3118Q300.545 88.7623 301.024 89.2373Q301.503 89.7122 301.958 90.2103Q302.412 90.7083 302.842 91.2284Q303.271 91.7484 303.675 92.2891Q304.078 92.8298 304.454 93.3898Q304.83 93.9499 305.177 94.5278Q305.525 95.1058 305.844 95.7004Q306.162 96.2949 306.451 96.9045C309.63 103.664 309.968 112.188 307.409 119.2C304.625 126.827 299.023 130.988 291.941 134.301C294.049 136.947 312.158 169.366 312.221 170.74C306.214 169.938 299.542 170.534 293.471 170.624C287.306 159.53 281.525 148.088 275.004 137.21C269.887 136.611 264.43 137.01 259.267 137.015C260.172 148.108 258.477 159.534 259.485 170.644C253.787 170.202 247.717 170.535 241.994 170.66C242.675 165.385 242.269 159.726 242.263 154.404L242.257 125.508L242.285 96.8585C242.292 91.5043 242.669 85.8625 241.992 80.5576ZM278.277 95.6639C271.934 95.8675 265.527 95.8296 259.181 95.7356C259.693 101.186 259.845 117.319 259.152 122.558C268.402 121.77 282.144 125.053 288.964 117.185C289.873 116.137 290.621 114.806 291.227 113.568C291.402 112.49 291.708 111.435 291.841 110.351C292.247 107.037 291.135 103.081 289.078 100.48C286.331 97.0062 282.439 96.1054 278.277 95.6639Z"/>
	<path fill="#353A3E" transform="scale(1.83784 1.83612)" d="M243.045 81.0627C248.085 80.762 253.268 80.9559 258.319 80.9622C263.465 80.9686 268.705 80.7958 273.841 81.1155C283.697 81.729 294.624 83.6347 301.429 91.4309C306.202 96.8987 308.077 104.514 307.578 111.665C307.1 118.525 303.992 125.337 298.266 129.369C296.27 130.775 293.733 131.891 291.982 133.567C289.159 136.269 309.511 163.6 309.352 169.145C305.562 168.863 301.683 169.484 297.876 169.291C295.728 169.182 294.724 169.009 293.276 167.395L283.059 148.975C280.748 144.788 278.619 140.44 275.94 136.475Q267.357 136.026 258.77 136.401C258.843 147.421 258.87 158.491 258.4 169.503C254.864 169.451 246.884 170.583 243.994 169.503C242.682 166.988 243.267 108.153 243.292 100.368C243.31 94.8619 244.087 86.0961 243.045 81.0627ZM278.277 95.6639C271.934 95.8675 265.527 95.8296 259.181 95.7356C259.693 101.186 259.845 117.319 259.152 122.558C268.402 121.77 282.144 125.053 288.964 117.185C289.873 116.137 290.621 114.806 291.227 113.568C291.402 112.49 291.708 111.435 291.841 110.351C292.247 107.037 291.135 103.081 289.078 100.48C286.331 97.0062 282.439 96.1054 278.277 95.6639Z"/>
	<path fill="#010202" transform="scale(1.83784 1.83612)" d="M258.749 95.1806C261.892 95.4182 276.767 94.6801 278.277 95.6639C271.934 95.8675 265.527 95.8296 259.181 95.7356C259.693 101.186 259.845 117.319 259.152 122.558C268.402 121.77 282.144 125.053 288.964 117.185C289.873 116.137 290.621 114.806 291.227 113.568C291.222 113.625 291.218 113.683 291.212 113.74C290.95 116.255 289.83 118.243 287.883 119.888C281.402 125.363 266.824 123.896 258.745 123.132C257.905 114.011 258.624 104.36 258.749 95.1806Z"/>
	<path fill="#353A3E" transform="scale(1.83784 1.83612)" d="M542.3 114.885C542.334 114.862 542.368 114.84 542.402 114.817C544.31 113.523 545.409 111.432 546.989 109.79C552.203 104.375 559.651 102.607 566.954 103.925C571.596 104.763 576.888 107.275 579.63 111.263C580.404 112.389 582.112 115.073 581.965 116.389L582.139 116.235C583.769 114.758 584.939 112.692 586.439 111.053C591.206 105.842 598.052 103.236 605.08 103.503C610.789 103.72 616.494 105.701 620.426 109.973C623.06 112.835 624.576 116.41 625.358 120.186C627.079 128.498 626.124 139.8 626.102 148.442C626.085 154.957 626.434 161.547 626.132 168.052C626.094 168.885 626.022 169.487 625.578 170.213C624.911 170.834 611.357 170.586 609.12 170.73C609.148 170.676 609.175 170.621 609.204 170.566C609.527 169.961 609.786 169.386 609.843 168.691C610.258 163.675 609.796 158.304 609.783 153.251C609.764 146.163 610.812 132.038 609.165 125.777C608.374 122.771 606.608 120.151 603.87 118.61C600.63 116.788 596.283 116.598 592.748 117.637C589.208 118.677 586.544 121.704 585.327 125.115C583.12 131.302 584.216 155.61 584.236 163.487C584.241 165.265 584.67 169.008 583.788 170.527C583.757 170.582 583.719 170.633 583.685 170.687C579.157 169.855 572.097 170.54 567.315 170.593C567.383 170.495 567.452 170.398 567.513 170.295C568.742 168.193 568.291 129.943 567.322 126.1C566.561 123.079 564.959 120.111 562.179 118.515C559.356 116.895 555.468 116.663 552.361 117.538C549.251 118.415 546.796 120.42 545.399 123.334C541.991 130.441 543.424 154.599 543.465 163.758C543.472 165.395 543.865 169.185 543.047 170.549C543.019 170.596 542.986 170.64 542.956 170.685C537.96 169.845 531.809 170.555 526.698 170.628C526.948 170.214 527.014 169.757 527.086 169.286C527.459 166.843 527.209 164.098 527.206 161.613L527.211 146.553L527.212 120.343C527.21 115.794 527.412 111.134 527.151 106.598C527.107 105.838 526.932 105.292 526.482 104.673C528.989 104.683 541.123 104.231 542.159 105.1C543.129 107.041 543.462 111.743 542.745 113.844C542.651 114.12 542.527 114.368 542.407 114.632C542.369 114.715 542.335 114.8 542.3 114.885Z"/>
	<path fill="#010202" transform="scale(1.83784 1.83612)" d="M526.482 104.673C528.989 104.683 541.123 104.231 542.159 105.1Q535.155 104.861 528.162 105.315C528.393 105.815 528.545 106.275 528.559 106.833C528.92 121.817 528.203 136.871 528.208 151.864C528.208 154.382 528.816 168.096 528.358 169.354C528.305 169.5 528.29 169.521 528.228 169.645Q534.826 169.995 541.416 169.529C541.451 169.474 541.487 169.42 541.519 169.363C542.454 167.71 542.281 164.709 542.396 162.789C542.774 156.482 542.726 150.226 542.621 143.913C542.473 134.986 540.127 119.923 551.428 116.479C554.792 115.454 559.571 115.691 562.66 117.381C565.624 119.003 567.526 121.989 568.406 125.186C568.83 126.727 569.03 128.297 569.114 129.89C569.338 134.103 569.578 167.48 568.741 168.904C568.657 169.047 568.606 169.112 568.514 169.239C572.613 169.336 579.358 168.838 583.082 169.969C583.117 169.9 583.153 169.833 583.187 169.763C584.232 167.605 583.862 163.527 583.864 161.126C583.869 154.072 582.734 129.119 584.531 123.948C585.634 120.776 587.993 118.161 591.143 116.939C594.894 115.485 600.605 115.702 604.233 117.393C606.624 118.508 608.791 120.659 609.666 123.175C612.182 130.414 609.139 167.875 611.718 169.907C616.232 170.703 620.931 169.347 625.578 170.213C624.911 170.834 611.357 170.586 609.12 170.73C609.148 170.676 609.175 170.621 609.204 170.566C609.527 169.961 609.786 169.386 609.843 168.691C610.258 163.675 609.796 158.304 609.783 153.251C609.764 146.163 610.812 132.038 609.165 125.777C608.374 122.771 606.608 120.151 603.87 118.61C600.63 116.788 596.283 116.598 592.748 117.637C589.208 118.677 586.544 121.704 585.327 125.115C583.12 131.302 584.216 155.61 584.236 163.487C584.241 165.265 584.67 169.008 583.788 170.527C583.757 170.582 583.719 170.633 583.685 170.687C579.157 169.855 572.097 170.54 567.315 170.593C567.383 170.495 567.452 170.398 567.513 170.295C568.742 168.193 568.291 129.943 567.322 126.1C566.561 123.079 564.959 120.111 562.179 118.515C559.356 116.895 555.468 116.663 552.361 117.538C549.251 118.415 546.796 120.42 545.399 123.334C541.991 130.441 543.424 154.599 543.465 163.758C543.472 165.395 543.865 169.185 543.047 170.549C543.019 170.596 542.986 170.64 542.956 170.685C537.96 169.845 531.809 170.555 526.698 170.628C526.948 170.214 527.014 169.757 527.086 169.286C527.459 166.843 527.209 164.098 527.206 161.613L527.211 146.553L527.212 120.343C527.21 115.794 527.412 111.134 527.151 106.598C527.107 105.838 526.932 105.292 526.482 104.673Z"/>
	<path fill="#FE663E" transform="scale(1.83784 1.83612)" d="M374.384 216.58C378.228 215.534 389.397 214.454 392.802 216.488C392.845 216.514 392.887 216.543 392.93 216.571C394.96 216.67 397.46 217.677 399.288 218.552C407.085 222.285 411.799 228.731 414.615 236.713C417.919 246.081 417.112 259.069 412.801 267.979C409.391 275.025 403.374 280.041 396 282.555C387.308 285.519 376.797 285.064 368.535 280.986C361.343 277.436 356.375 271.416 353.842 263.835C350.567 254.031 351.16 240.541 355.855 231.274C359.9 223.293 366.084 219.288 374.384 216.58ZM385.467 270.68C389.249 270.446 392.62 268.621 395.119 265.789C399.419 260.915 400.355 253.415 399.932 247.17C399.564 241.747 398 236.072 393.742 232.4C390.266 229.401 386.625 229.003 382.181 229.141C377.665 230.121 374.406 231.721 371.873 235.7C368.025 241.744 367.869 251.15 369.425 257.923C370.449 262.381 372.734 266.403 376.7 268.842C378.885 270.186 382.733 271.347 385.344 270.714C385.385 270.704 385.426 270.691 385.467 270.68Z"/>
	<path fill="#FE663E" transform="scale(1.83784 1.83612)" d="M491.85 216.586C495.887 215.636 508.154 214.4 511.682 216.632C511.877 216.755 511.884 216.782 512.013 216.932C513.742 217.057 515.631 217.973 517.192 218.695C524.229 221.95 529.164 228.009 531.811 235.217C535.47 245.181 535.12 257.732 530.614 267.371C527.247 274.576 521.44 279.719 513.973 282.418C505.497 285.482 494.788 285.13 486.613 281.286C479.559 277.969 474.566 272.033 471.983 264.728C468.367 254.502 468.672 241.846 473.389 232.018C477.291 223.889 483.562 219.502 491.85 216.586ZM503.305 270.701C506.601 270.572 510.126 268.553 512.339 266.165C516.875 261.27 517.76 253.97 517.473 247.573C517.228 242.085 515.851 236.271 511.617 232.449C508.305 229.458 504.602 228.961 500.355 229.142C495.981 229.802 492.788 231.291 490.133 234.91C485.951 240.609 485.598 249.357 486.645 256.08C487.385 260.833 489.317 265.396 493.3 268.302C495.969 270.25 499.826 271.314 503.141 270.738C503.196 270.729 503.251 270.714 503.305 270.701Z"/>
	<path fill="#353A3E" transform="scale(1.83784 1.83612)" d="M341.825 171.245C337.853 170.337 333.808 169.101 330.329 166.924C323.556 162.687 319.173 155.821 317.453 148.102C315.232 138.13 316.016 125.653 321.655 116.878C326.041 110.054 332.942 105.814 340.801 104.127C349.4 102.283 359.566 103.548 367.005 108.412C373.555 112.695 377.167 119.266 378.739 126.801C379.298 129.479 380.882 140.214 379.352 142.542C374.702 141.89 369.451 142.346 364.746 142.353L335.172 142.368L333.656 142.337C333.062 142.935 332.74 143.486 332.763 144.37C332.86 147.993 336.146 152.779 338.799 155.128C342.065 158.019 345.859 159.57 350.246 159.26C354.629 158.951 358.304 156.906 361.252 153.702C361.834 153.07 362.596 151.871 363.351 151.483C363.901 151.201 364.553 151.417 365.138 151.501Q371.434 152.071 377.718 152.753C378.051 155.182 375.469 158.892 374.043 160.761C369.227 167.075 361.677 170.532 353.944 171.564C349.831 172.113 345.909 171.881 341.825 171.245ZM332.347 131.62Q341.022 131.44 349.698 131.511C354.149 131.51 358.696 131.312 363.136 131.561C363.852 129.623 362.998 126.245 362.151 124.416Q361.849 123.77 361.485 123.156Q361.122 122.542 360.699 121.968Q360.277 121.393 359.8 120.862Q359.323 120.332 358.797 119.85Q358.27 119.369 357.699 118.942Q357.128 118.515 356.517 118.146Q355.907 117.777 355.263 117.47Q354.619 117.163 353.948 116.921C351.242 115.942 348.725 115.907 345.892 116.2C342.334 117.291 337.718 119.341 335.917 122.835C334.72 125.159 334.088 129.929 332.347 131.62Z"/>
	<path fill="#010202" transform="scale(1.83784 1.83612)" d="M341.825 171.245C337.853 170.337 333.808 169.101 330.329 166.924C323.556 162.687 319.173 155.821 317.453 148.102C315.232 138.13 316.016 125.653 321.655 116.878C326.041 110.054 332.942 105.814 340.801 104.127C349.4 102.283 359.566 103.548 367.005 108.412C373.555 112.695 377.167 119.266 378.739 126.801C379.298 129.479 380.882 140.214 379.352 142.542C374.702 141.89 369.451 142.346 364.746 142.353L335.172 142.368C339.031 141.509 343.863 142.017 347.828 142.037C358.011 142.088 368.445 142.612 378.596 142.029C377.943 130.927 378.019 119.53 369 111.518C362.893 106.092 354.106 104.238 346.131 104.746C338.685 105.22 330.318 108.115 325.282 113.847C318.594 121.46 317.27 132.269 317.94 142.012C318.493 150.061 321.504 157.979 327.693 163.363C331.476 166.654 336.222 168.423 341.006 169.72C341.257 169.788 341.167 169.759 341.415 169.914C346.772 169.834 351.489 170.675 356.898 169.548C364.259 168.013 370.138 164.399 374.235 158.066C374.928 156.994 375.84 155.569 375.56 154.257C372.417 152.9 368.475 152.755 365.138 151.501Q371.434 152.071 377.718 152.753C378.051 155.182 375.469 158.892 374.043 160.761C369.227 167.075 361.677 170.532 353.944 171.564C349.831 172.113 345.909 171.881 341.825 171.245Z"/>
	<path fill="#010202" transform="scale(1.83784 1.83612)" d="M665.337 103.5C671.746 102.919 678.747 103.944 684.504 106.895C691.292 110.374 695.874 116.16 698.179 123.396C699.314 126.963 701.34 139.047 699.598 142.438C694.735 141.906 689.457 142.354 684.538 142.364L652.456 142.365C654.377 145.136 654.214 149.729 657.05 153.341C659.66 156.663 663.49 158.507 667.645 159.007C671.472 159.467 676.461 158.531 679.513 156.06C680.77 155.043 682.747 152.892 682.927 151.21Q687.516 151.669 692.097 152.204Q695.028 152.527 697.971 152.724C698.269 154.486 696.044 158.143 694.994 159.613C690.278 166.209 683.335 170.048 675.423 171.354C666.42 172.841 656.427 171.226 648.934 165.819C642.358 161.074 638.394 153.758 637.159 145.827C635.595 135.785 636.669 124.027 642.858 115.624C648.517 107.942 656.203 104.916 665.337 103.5ZM652.739 131.695C658.688 131.34 664.689 131.502 670.648 131.518C674.903 131.512 679.361 131.794 683.592 131.487C684.296 129.19 683.473 125.903 682.347 123.811Q681.987 123.151 681.562 122.531Q681.137 121.911 680.653 121.336Q680.168 120.761 679.629 120.238Q679.089 119.715 678.5 119.248Q677.911 118.781 677.278 118.376Q676.645 117.97 675.974 117.63Q675.304 117.29 674.603 117.019Q673.902 116.748 673.177 116.548C670.813 115.879 668.603 115.954 666.185 116.201C662.531 117.276 658.461 119.075 656.497 122.541C655.148 124.923 654.147 130.03 652.739 131.695Z"/>
	<path fill="#353A3E" transform="scale(1.83784 1.83612)" d="M665.713 104.873C669.653 104.461 673.903 104.718 677.751 105.671C684.638 107.376 690.489 111.433 694.143 117.555C697.78 123.65 698.214 130.412 698.909 137.284C699.051 138.687 699.569 140.649 699.227 142.013C693.792 141.751 656.228 141.318 652.814 142.314C651.979 143.587 652.467 145.625 652.741 147.037C653.589 151.402 656.421 155.045 660.103 157.504Q660.376 157.689 660.656 157.863Q660.936 158.036 661.222 158.199Q661.509 158.362 661.801 158.514Q662.094 158.666 662.392 158.806Q662.69 158.947 662.994 159.075Q663.297 159.204 663.605 159.321Q663.913 159.438 664.226 159.542Q664.538 159.647 664.854 159.74Q665.171 159.833 665.49 159.913Q665.81 159.993 666.132 160.061Q666.455 160.129 666.78 160.185Q667.104 160.24 667.431 160.283Q667.758 160.325 668.086 160.356Q668.414 160.386 668.744 160.403Q669.073 160.42 669.402 160.425Q669.732 160.43 670.061 160.422Q670.391 160.413 670.719 160.393Q671.048 160.372 671.376 160.338Q671.704 160.304 672.03 160.258Q672.357 160.212 672.681 160.153Q673.005 160.094 673.327 160.023Q673.649 159.952 673.967 159.868Q674.286 159.784 674.601 159.688Q674.917 159.592 675.228 159.484Q675.539 159.376 675.846 159.256Q676.153 159.135 676.455 159.003Q676.757 158.872 677.054 158.728Q677.35 158.585 677.641 158.43Q677.932 158.275 678.217 158.109Q678.501 157.943 678.779 157.766Q679.057 157.589 679.328 157.401Q679.599 157.214 679.863 157.016C681.696 155.617 683.217 152.933 685.565 152.507C685.655 152.49 685.746 152.476 685.837 152.461C688.662 152.344 693.105 153.149 695.654 154.309C695.696 156.184 694.39 158.356 693.308 159.84C689.224 165.449 682.276 168.833 675.541 169.859C666.632 171.218 656.854 170.046 649.458 164.577C643.059 159.846 639.453 152.443 638.341 144.675C636.904 134.643 638.334 123.498 644.567 115.22C649.728 108.365 657.56 106.013 665.713 104.873ZM652.739 131.695C658.688 131.34 664.689 131.502 670.648 131.518C674.903 131.512 679.361 131.794 683.592 131.487C684.296 129.19 683.473 125.903 682.347 123.811Q681.987 123.151 681.562 122.531Q681.137 121.911 680.653 121.336Q680.168 120.761 679.629 120.238Q679.089 119.715 678.5 119.248Q677.911 118.781 677.278 118.376Q676.645 117.97 675.974 117.63Q675.304 117.29 674.603 117.019Q673.902 116.748 673.177 116.548C670.813 115.879 668.603 115.954 666.185 116.201C662.531 117.276 658.461 119.075 656.497 122.541C655.148 124.923 654.147 130.03 652.739 131.695Z"/>
	<path fill="#353A3E" transform="scale(1.83784 1.83612)" d="M495.202 104.671C500.64 104.688 506.107 104.822 511.54 104.614C511.868 105.21 512.018 105.71 512.043 106.397C512.507 119.151 512.018 132.079 512.04 144.858C512.048 149.366 512.64 167.077 511.924 169.727C511.839 170.045 511.724 170.333 511.556 170.616C506.442 170.359 501.263 170.576 496.141 170.621C497.077 168.865 496.46 164.348 495.84 162.47C495.795 162.335 495.716 162.174 495.659 162.049C493.109 165.532 490.327 168.054 486.308 169.778C480.531 172.256 472.362 172.452 466.52 170.088C452.231 164.304 453.605 148.12 453.627 135.449L453.618 114.454C453.641 111.795 454.322 107.229 453.225 104.873C453.194 104.807 453.16 104.742 453.128 104.676Q461.554 104.665 469.979 104.739C470.643 107.823 470.257 111.535 470.257 114.692L470.184 134.716C470.168 138.834 469.952 143.057 470.422 147.15C470.786 150.33 471.481 153.101 474.155 155.155C477.045 157.376 481.059 157.98 484.596 157.451C487.492 157.018 490.75 155.699 492.485 153.247C493.159 152.295 494.218 150.57 493.997 149.388C496.774 146.17 496.342 112.826 495.918 106.642C495.864 105.856 495.674 105.309 495.202 104.671Z"/>
	<path fill="#010202" transform="scale(1.83784 1.83612)" d="M495.202 104.671C500.64 104.688 506.107 104.822 511.54 104.614C511.868 105.21 512.018 105.71 512.043 106.397C512.507 119.151 512.018 132.079 512.04 144.858C512.048 149.366 512.64 167.077 511.924 169.727C511.839 170.045 511.724 170.333 511.556 170.616C506.442 170.359 501.263 170.576 496.141 170.621C497.077 168.865 496.46 164.348 495.84 162.47C495.795 162.335 495.716 162.174 495.659 162.049C496.244 162.292 496.575 162.599 496.852 163.18C497.516 164.573 498.206 167.529 497.69 168.998C501.949 169.364 506.268 169.292 510.539 169.23C510.684 168.983 510.816 168.728 510.907 168.455C511.672 166.154 511.139 138.856 511.14 134.415C511.142 125.144 511.415 115.82 511.28 106.557C511.272 106.014 511.145 105.627 510.902 105.147C506.085 105.013 501.361 105.098 496.562 105.533C497.689 108.516 496.957 143.406 495.861 147.174C495.492 148.443 495.114 148.792 493.997 149.388C496.774 146.17 496.342 112.826 495.918 106.642C495.864 105.856 495.674 105.309 495.202 104.671Z"/>
	<path fill="#353A3E" transform="scale(1.83784 1.83612)" d="M411.108 159.974C415.106 160.058 419.164 160.218 422.914 158.585C424.68 157.816 426.551 156.602 427.251 154.715C427.848 153.109 427.483 151.074 426.716 149.584C424.586 145.44 407.514 143.25 402.671 141.576C397.718 139.864 392.865 137.132 390.5 132.23C388.444 127.97 388.417 121.842 389.99 117.43C391.804 112.344 395.907 108.486 400.737 106.241C409.012 102.394 419.917 102.542 428.38 105.701C433.703 107.688 438.346 111.235 440.72 116.506C441.414 118.048 442.423 120.802 441.809 122.432C437.578 121.677 430.519 122.33 425.972 122.448C425.992 121.312 425.133 120.128 424.436 119.301C422.377 116.859 419.184 115.903 416.118 115.668C413.418 115.513 410.546 115.767 408.153 117.16C406.39 118.187 405.153 119.929 404.645 121.894C404.328 123.124 404.495 124.353 405.162 125.442C408.205 130.416 419.726 131.233 425.032 132.585C431.229 134.163 437.46 136.229 440.883 142.049C443.269 146.106 443.598 151.61 442.423 156.101C441.098 161.163 437.53 165.061 433.079 167.657C424.584 172.612 413.001 172.971 403.682 170.462C396.918 168.641 391.275 164.642 388.362 158.183C387.527 156.33 387.181 154.174 386.143 152.445C386.102 152.377 386.059 152.31 386.018 152.242Q394.112 152.293 402.204 152.155C403.767 153.355 404.361 156.084 406.084 157.513C407.458 158.653 409.48 158.929 410.987 159.894C411.027 159.92 411.067 159.947 411.108 159.974Z"/>
	<path fill="#010202" transform="scale(1.83784 1.83612)" d="M411.108 159.974C415.106 160.058 419.164 160.218 422.914 158.585C424.68 157.816 426.551 156.602 427.251 154.715C427.848 153.109 427.483 151.074 426.716 149.584C424.586 145.44 407.514 143.25 402.671 141.576C397.718 139.864 392.865 137.132 390.5 132.23C388.444 127.97 388.417 121.842 389.99 117.43C391.804 112.344 395.907 108.486 400.737 106.241C409.012 102.394 419.917 102.542 428.38 105.701C433.703 107.688 438.346 111.235 440.72 116.506C441.414 118.048 442.423 120.802 441.809 122.432C437.578 121.677 430.519 122.33 425.972 122.448C425.992 121.312 425.133 120.128 424.436 119.301C422.377 116.859 419.184 115.903 416.118 115.668C413.418 115.513 410.546 115.767 408.153 117.16C406.39 118.187 405.153 119.929 404.645 121.894C404.328 123.124 404.495 124.353 405.162 125.442C408.205 130.416 419.726 131.233 425.032 132.585C431.229 134.163 437.46 136.229 440.883 142.049C443.269 146.106 443.598 151.61 442.423 156.101C441.098 161.163 437.53 165.061 433.079 167.657C424.584 172.612 413.001 172.971 403.682 170.462C396.918 168.641 391.275 164.642 388.362 158.183C387.527 156.33 387.181 154.174 386.143 152.445C386.102 152.377 386.059 152.31 386.018 152.242Q394.112 152.293 402.204 152.155C403.767 153.355 404.361 156.084 406.084 157.513C407.458 158.653 409.48 158.929 410.987 159.894C411.027 159.92 411.067 159.947 411.108 159.974C409.222 160.17 407.391 159.804 405.885 158.597C404.308 157.334 403.042 155.123 401.432 154.116C396.922 153.699 392.341 153.89 387.816 153.948C387.866 154.017 387.917 154.085 387.966 154.155C389.124 155.789 389.581 157.789 390.578 159.521C393.947 165.369 400.075 168.562 406.543 169.751C415.701 171.434 426.269 170.846 434.142 165.385C438.02 162.696 440.649 158.872 441.464 154.195C442.197 149.984 441.613 145.21 439.09 141.668C430.989 130.296 401.098 134.453 403.339 121.498C403.694 119.445 405.064 117.853 406.745 116.707C410.174 114.368 414.017 114.151 417.989 114.776C421.737 115.474 424.457 117.031 426.674 120.192C426.891 120.501 426.98 120.675 427.014 121.051C431.636 122.011 435.825 121.874 440.494 121.412C440.919 119.205 438.844 115.585 437.623 113.795C434.187 108.757 428.771 106.51 422.935 105.442C414.668 103.929 404.764 104.465 397.675 109.414Q396.958 109.921 396.293 110.496Q395.629 111.07 395.024 111.707Q394.418 112.343 393.878 113.036Q393.338 113.728 392.867 114.47Q392.397 115.212 392.001 115.996Q391.606 116.781 391.288 117.6Q390.971 118.419 390.735 119.265Q390.499 120.111 390.346 120.976C389.601 125.206 390.288 129.813 392.808 133.356C401.651 145.794 430.942 140.604 428.66 153.602C428.29 155.715 426.817 157.439 425.097 158.63C421.734 160.959 417.203 161.462 413.267 160.699C412.511 160.552 411.808 160.287 411.108 159.974Z"/>
	<path fill="#FE663E" transform="scale(1.83784 1.83612)" d="M433.527 198.933C438.287 198.881 443.131 199.224 447.874 198.898C447.899 198.966 447.924 199.035 447.947 199.103C448.773 201.562 448.867 214.642 447.703 216.868Q455.278 216.865 462.85 216.619C463.011 216.867 463.17 217.141 463.25 217.427C463.839 219.551 463.71 228.284 462.731 230.044C457.81 229.992 452.894 230.077 447.968 229.988C450.083 233.345 446.491 259.892 448.948 266.155C449.6 267.817 450.791 269.084 452.444 269.775C455.438 271.026 460.482 270.608 463.478 269.415C463.605 269.625 463.735 269.86 463.794 270.1C464.211 271.802 464.252 278.416 463.399 279.948C463.538 280.231 463.68 280.52 463.784 280.818C464.053 281.597 464.005 282.133 463.648 282.848C458.125 285.289 448.224 285.263 442.538 283.212C430.486 278.864 431.889 265.846 431.921 255.453L431.835 237.859C431.832 235.726 432.298 231.951 431.356 230.095C431.324 230.032 431.289 229.97 431.255 229.908C427.868 230.252 424.314 230.07 420.895 230.277C421.521 227.829 421.699 218.75 420.566 216.688L431.591 216.854C433.184 214.327 430.477 202.901 431.969 199.846C432.301 199.166 432.858 199.152 433.527 198.933Z"/>
	<path fill="#353A3E" transform="scale(1.83784 1.83612)" d="M47.5191 144.59C67.4147 144.307 87.3422 144.635 107.242 144.599C114.687 144.586 135.486 143.662 141.759 145.219C142.963 146.17 143.89 147.236 144.867 148.407C145.313 150.584 145.572 152.386 144.642 154.511C143.733 156.589 141.952 157.817 139.907 158.623C134.778 159.056 129.47 158.822 124.324 158.824L96.9945 158.824L64.9628 158.81C60.1357 158.813 55.1985 159.125 50.3883 158.895C48.5907 158.809 46.745 158.535 45.1124 157.741C43.5851 156.998 42.3507 155.813 41.8266 154.169C41.2752 152.439 41.5034 149.539 42.4184 147.924C43.4994 146.016 45.4949 145.121 47.5191 144.59Z"/>
	<path fill="#353A3E" transform="scale(1.83784 1.83612)" d="M119.953 183.003C124.867 182.856 139.653 181.781 143.324 184.803C144.536 185.8 145.239 187.196 145.358 188.759C145.508 190.726 145.026 192.818 143.684 194.309C141.809 196.392 138.862 196.997 136.174 197.077C131.005 197.233 125.776 196.953 120.599 196.96L80.4314 196.992L57.8134 196.994C54.7763 196.998 51.4702 197.358 48.4682 197.088Q47.7951 197.026 47.142 196.852Q46.4888 196.678 45.8741 196.397Q45.2593 196.116 44.7003 195.736Q44.1414 195.356 43.654 194.888Q43.3781 194.616 43.1308 194.319Q42.8834 194.021 42.667 193.7Q42.4506 193.379 42.2673 193.038Q42.084 192.698 41.9356 192.34Q41.7872 191.983 41.6753 191.612Q41.5634 191.242 41.489 190.862Q41.4146 190.482 41.3785 190.096Q41.3424 189.711 41.345 189.324C41.3503 187.697 41.9392 186.154 43.1293 185.026C46.4534 181.876 57.4871 182.889 61.981 182.997C75.7548 182.798 89.55 183.014 103.326 183.032C107.699 183.038 116.018 182.441 119.953 183.003Z"/>
	<path fill="#010202" transform="scale(1.83784 1.83612)" d="M119.953 183.003C124.867 182.856 139.653 181.781 143.324 184.803C144.536 185.8 145.239 187.196 145.358 188.759C145.508 190.726 145.026 192.818 143.684 194.309C141.809 196.392 138.862 196.997 136.174 197.077C131.005 197.233 125.776 196.953 120.599 196.96L80.4314 196.992L57.8134 196.994C54.7763 196.998 51.4702 197.358 48.4682 197.088Q47.7951 197.026 47.142 196.852Q46.4888 196.678 45.8741 196.397Q45.2593 196.116 44.7003 195.736Q44.1414 195.356 43.654 194.888Q43.3781 194.616 43.1308 194.319Q42.8834 194.021 42.667 193.7Q42.4506 193.379 42.2673 193.038Q42.084 192.698 41.9356 192.34Q41.7872 191.983 41.6753 191.612Q41.5634 191.242 41.489 190.862Q41.4146 190.482 41.3785 190.096Q41.3424 189.711 41.345 189.324C41.3503 187.697 41.9392 186.154 43.1293 185.026C46.4534 181.876 57.4871 182.889 61.981 182.997C61.8871 183.019 61.7935 183.042 61.6995 183.062C56.9928 184.093 46.7417 181.921 43.6599 186.362C42.8142 187.581 42.6833 189.502 42.9718 190.915C43.3086 192.565 44.1166 193.567 45.2847 194.72C45.9054 195.332 46.6233 195.395 47.4542 195.463C51.3621 195.782 55.3796 195.612 59.3016 195.63L80.6433 195.671C98.2495 195.645 115.881 195.874 133.484 195.593C136.046 195.552 140.152 195.82 142.04 193.905L142.194 193.751C143.283 192.646 143.85 191.289 143.827 189.733C143.801 188.003 143.231 186.704 141.978 185.531Q141.658 185.233 141.328 184.946C134.682 182.826 126.807 184.598 119.953 183.003Z"/>
	<path fill="#353A3E" transform="scale(1.83784 1.83612)" d="M47.0415 221.487C57.7548 221.016 68.6635 221.475 79.3959 221.452C89.4881 221.431 99.8485 220.896 109.915 221.447C111.18 221.517 112.634 221.64 113.78 222.202C115.41 223.002 116.573 224.529 117.13 226.234C117.805 228.301 117.332 230.103 116.363 231.972C115.36 233.904 113.79 234.795 111.771 235.428C101.285 235.973 90.5664 235.474 80.0566 235.491C70.0762 235.507 59.8002 236.075 49.8498 235.48C48.2515 235.384 46.2436 235.223 44.8107 234.475C43.3357 233.704 42.3188 232.435 41.8364 230.848C41.2333 228.864 41.5141 226.712 42.4939 224.897C43.5186 222.999 45.0236 222.075 47.0415 221.487Z"/>
</svg>
